<svg id="visual" viewBox="0 0 900 600" width="900" height="600" xmlns="http://www.w3.org/2000/svg" xmlns:xlink="http://www.w3.org/1999/xlink" version="1.1"><rect x="0" y="0" width="900" height="600" fill="#03071e"></rect><path d="M0 301L129 222L257 281L386 261L514 298L643 306L771 219L900 320L900 601L771 601L643 601L514 601L386 601L257 601L129 601L0 601Z" fill="#dc2f02"></path><path d="M0 323L129 311L257 354L386 409L514 359L643 323L771 320L900 298L900 601L771 601L643 601L514 601L386 601L257 601L129 601L0 601Z" fill="#b60040"></path><path d="M0 401L129 442L257 426L386 372L514 409L643 393L771 454L900 438L900 601L771 601L643 601L514 601L386 601L257 601L129 601L0 601Z" fill="#760652"></path><path d="M0 492L129 467L257 472L386 459L514 474L643 435L771 481L900 439L900 601L771 601L643 601L514 601L386 601L257 601L129 601L0 601Z" fill="#331744"></path><path d="M0 527L129 537L257 515L386 515L514 542L643 550L771 532L900 494L900 601L771 601L643 601L514 601L386 601L257 601L129 601L0 601Z" fill="#03071e"></path></svg>